<svg width="99" height="74" viewBox="0 0 99 74" fill="none" xmlns="http://www.w3.org/2000/svg">
<path d="M80.1474 23.8608H73.9146L75.7925 2.11095C75.796 2.07155 75.7966 2.03273 75.7968 1.99392C75.7968 1.9906 75.7972 1.98748 75.7972 1.98416C75.7972 1.98358 75.7972 1.98319 75.7972 1.9826C75.7972 1.39063 75.4431 0.868869 74.9228 0.642026C74.9184 0.640076 74.9141 0.637735 74.9097 0.635785C74.8774 0.622131 74.8439 0.610428 74.8103 0.599115C74.7977 0.595019 74.7857 0.589947 74.7731 0.586046C74.7457 0.577659 74.7174 0.571027 74.6894 0.564201C74.6697 0.559519 74.6507 0.553863 74.6308 0.549962C74.6063 0.545086 74.5807 0.541966 74.5556 0.53826C74.532 0.534749 74.5088 0.530652 74.485 0.528507C74.481 0.528117 74.4773 0.527336 74.4732 0.526946C74.4477 0.524605 74.4226 0.524995 74.3972 0.52402C74.3802 0.523435 74.3636 0.521484 74.3466 0.521484H74.3284C74.3269 0.521484 74.3253 0.521484 74.324 0.521484H44.6681C43.8676 0.521484 43.2179 1.17685 43.2179 1.98436C43.2179 2.78992 43.8676 3.44723 44.6681 3.44723H72.7659L69.8798 36.8739C69.8794 36.8765 69.8794 36.879 69.879 36.8815L69.1508 45.3157H18.7594L19.6023 36.5388H29.197C29.9981 36.5388 30.6472 35.8839 30.6472 35.076C30.6472 34.2681 29.9981 33.6131 29.197 33.6131H19.8834L21.6631 15.0843H36.9337C37.7348 15.0843 38.3839 14.4293 38.3839 13.6214C38.3839 12.8135 37.7348 12.1586 36.9337 12.1586H21.9442L22.7811 3.44723H38.8673C39.6659 3.44723 40.3175 2.78992 40.3175 1.98436C40.3175 1.17685 39.6659 0.521484 38.8673 0.521484H21.4649C21.4641 0.521484 21.4636 0.521679 21.4628 0.521679C20.7816 0.521484 20.1907 1.00521 20.0478 1.67579C20.0468 1.68067 20.0451 1.68535 20.0441 1.69022C20.0368 1.7267 20.0319 1.76395 20.0271 1.8014C20.0257 1.8133 20.0232 1.82461 20.0221 1.83651C20.0219 1.83885 20.0213 1.841 20.0211 1.84334L19.0303 12.1586H1.4502C0.64911 12.1586 0 12.8135 0 13.6214C0 14.4293 0.64911 15.0843 1.4502 15.0843H18.7492L16.9695 33.6131H11.7954C10.9943 33.6131 10.3452 34.2681 10.3452 35.076C10.3452 35.8839 10.9943 36.5388 11.7954 36.5388H16.6885L15.7194 46.627C15.7192 46.6286 15.7192 46.6301 15.719 46.6315L14.2207 62.2314C14.2205 62.2332 14.2203 62.2351 14.2201 62.2367L14.2195 62.2423C14.2176 62.2626 14.2178 62.2825 14.2166 62.3028C14.2153 62.3297 14.2125 62.356 14.2125 62.3833C14.2125 62.3845 14.2127 62.3857 14.2127 62.3871C14.2127 62.4247 14.2154 62.4618 14.2182 62.4988C14.2193 62.5107 14.2189 62.5228 14.2203 62.5345C14.2242 62.5723 14.2305 62.6096 14.2373 62.6467C14.2392 62.6576 14.2402 62.6687 14.2423 62.6794C14.2479 62.7075 14.2559 62.7346 14.2632 62.7621C14.2682 62.7814 14.2723 62.8011 14.2781 62.8201C14.2798 62.8253 14.2822 62.8304 14.2837 62.8359C14.3539 63.0535 14.473 63.249 14.6285 63.4085C14.6314 63.4115 14.6337 63.4148 14.6366 63.4175C14.6521 63.4331 14.6689 63.4471 14.6851 63.462C14.7851 63.5544 14.898 63.6328 15.0216 63.6943C15.0473 63.7072 15.0726 63.7206 15.0989 63.7317C15.1068 63.7352 15.1153 63.7376 15.1235 63.7407C15.1598 63.7553 15.1964 63.7694 15.2341 63.7813C15.2376 63.7822 15.2408 63.7828 15.2443 63.784C15.2872 63.7969 15.3306 63.8082 15.3748 63.8174C15.3806 63.8185 15.3866 63.8189 15.3922 63.8201C15.4344 63.8281 15.4767 63.8349 15.5199 63.8392C15.5208 63.8392 15.5216 63.8394 15.5226 63.8396C15.5701 63.8443 15.6173 63.8466 15.6641 63.8466C15.6647 63.8466 15.6655 63.8464 15.6662 63.8464H22.1221C22.8351 69.2987 27.4689 73.5215 33.0657 73.5215C38.6622 73.5215 43.296 69.2987 44.009 63.8464H67.27C67.9831 69.2987 72.6168 73.5215 78.2134 73.5215C83.8098 73.5215 88.4441 69.2987 89.1572 63.8464H95.6147C95.6156 63.8464 95.6168 63.8466 95.6177 63.8466C95.6661 63.8466 95.7137 63.8437 95.7608 63.839C95.7693 63.8382 95.7775 63.8365 95.786 63.8355C95.8237 63.831 95.8612 63.8257 95.8979 63.8183C95.9138 63.8152 95.9291 63.8109 95.9447 63.8072C95.9731 63.8006 96.0018 63.7936 96.0296 63.7852C96.0486 63.7795 96.0669 63.7729 96.0855 63.7664C96.1093 63.7583 96.1331 63.7497 96.1564 63.7401C96.1766 63.7321 96.1957 63.7233 96.2152 63.7146C96.2365 63.7046 96.2578 63.6945 96.2785 63.6837C96.2982 63.6736 96.3171 63.6631 96.3361 63.6521C96.356 63.6404 96.3757 63.6284 96.3952 63.6159C96.4134 63.6042 96.4316 63.5923 96.449 63.5798C96.4687 63.5659 96.4875 63.5513 96.5066 63.5365C96.5225 63.5238 96.5385 63.5113 96.554 63.4981C96.5739 63.4811 96.5927 63.4633 96.6116 63.4452C96.6248 63.4325 96.6385 63.42 96.6513 63.4068C96.6714 63.3861 96.6905 63.3643 96.7097 63.3422C96.7199 63.3303 96.7305 63.3188 96.7404 63.3067C96.7617 63.2802 96.781 63.2529 96.8003 63.2254C96.8069 63.2158 96.8143 63.2068 96.8206 63.1971C96.8442 63.1614 96.8665 63.1247 96.887 63.0869C96.8885 63.0846 96.8901 63.0824 96.891 63.0799C96.9129 63.0393 96.933 62.9978 96.951 62.9548C96.956 62.9426 96.9599 62.9299 96.9647 62.9176C96.9765 62.8874 96.9881 62.8571 96.998 62.8257C97.0043 62.8054 97.009 62.7846 97.0146 62.7641C97.021 62.7397 97.0277 62.7155 97.0331 62.6907C97.038 62.6687 97.0411 62.6461 97.0447 62.6236C97.048 62.6039 97.0523 62.5846 97.0548 62.5645C97.1163 62.0676 98.2519 52.877 98.7591 46.9342C98.7597 46.9286 98.7598 46.9227 98.7604 46.9171C98.9064 45.2039 99 43.7613 99 42.8782C99 32.3921 90.5428 23.8608 80.1474 23.8608ZM73.6619 26.7869H79.5948L78.837 35.5634H72.9041L73.6619 26.7869ZM33.0661 70.5955C28.5769 70.5955 24.9247 66.9114 24.9247 62.3832C24.9247 57.8549 28.5771 54.1708 33.0661 54.1708C37.5552 54.1708 41.2074 57.8549 41.2074 62.3832C41.2074 66.9114 37.5552 70.5955 33.0661 70.5955ZM78.2134 70.5955C73.7244 70.5955 70.0724 66.9114 70.0724 62.3832C70.0724 57.8549 73.7245 54.1708 78.2134 54.1708C82.7026 54.1708 86.3548 57.8549 86.3548 62.3832C86.3548 66.9114 82.7026 70.5955 78.2134 70.5955ZM94.3333 60.9197H89.1576C88.4449 55.4671 83.8108 51.244 78.2138 51.244C72.6172 51.244 67.9831 55.4673 67.2704 60.9197H44.0095C43.2968 55.4671 38.6629 51.244 33.0661 51.244C27.4693 51.244 22.8351 55.4673 22.1223 60.9197H17.2605L18.4785 48.2407H70.4798V48.2414C70.4805 48.2414 70.4811 48.2414 70.4819 48.2414C70.5304 48.2414 70.5786 48.2387 70.6261 48.2338C70.635 48.2331 70.6437 48.2311 70.6526 48.2299C70.6905 48.2254 70.7282 48.22 70.7654 48.2126C70.7814 48.2093 70.7971 48.2048 70.8129 48.2009C70.8419 48.1938 70.8709 48.187 70.8992 48.1784C70.9185 48.1726 70.9369 48.1656 70.9556 48.1589C70.98 48.1504 71.0044 48.142 71.0279 48.1322C71.0482 48.1238 71.0678 48.1145 71.0875 48.1051C71.109 48.0952 71.1304 48.0852 71.1511 48.0743C71.1708 48.0638 71.1902 48.0524 71.2097 48.0411C71.2296 48.0294 71.2493 48.0175 71.2687 48.005C71.2874 47.9928 71.3052 47.9799 71.3232 47.967C71.3423 47.9534 71.3609 47.9393 71.3795 47.9247C71.3961 47.9112 71.4125 47.8974 71.4288 47.8831C71.4471 47.8671 71.4651 47.8508 71.4825 47.8338C71.4972 47.8195 71.5119 47.8049 71.5262 47.7899C71.5436 47.7716 71.5605 47.7526 71.5771 47.7333C71.59 47.7181 71.6028 47.7029 71.6152 47.6873C71.6312 47.6668 71.6465 47.6458 71.6616 47.6245C71.673 47.6085 71.684 47.5925 71.6948 47.5761C71.709 47.5541 71.7225 47.5315 71.7354 47.5084C71.7453 47.4913 71.7554 47.4741 71.7643 47.4566C71.7764 47.4335 71.7869 47.4101 71.7979 47.3865C71.8064 47.3676 71.8151 47.3491 71.8229 47.3296C71.8323 47.3066 71.8403 47.283 71.8486 47.2594C71.8557 47.2385 71.8633 47.2176 71.8696 47.1962C71.876 47.1735 71.8812 47.1503 71.887 47.1273C71.8927 47.1041 71.8988 47.0811 71.9033 47.0575C71.9077 47.0345 71.9104 47.0111 71.9139 46.9877C71.9174 46.9635 71.9215 46.9397 71.9238 46.9151C71.9242 46.9116 71.9249 46.9083 71.9251 46.9048L72.652 38.4884H80.147C84.5902 38.4884 86.5942 40.8106 88.7156 43.2694C90.4661 45.2981 92.4203 47.5617 95.7423 48.1139C95.3204 52.6137 94.6384 58.3903 94.3333 60.9197ZM95.9902 45.1823C93.8352 44.7391 92.5093 43.2109 90.903 41.3494C88.8942 39.0214 86.4418 36.1805 81.7407 35.6512L82.4909 26.9621C90.1797 28.1092 96.0996 34.8087 96.0996 42.8785C96.0996 43.4268 96.059 44.2234 95.9902 45.1823Z" fill="white"/>
<path d="M33.0661 57.0191C30.1342 57.0191 27.7487 59.4252 27.7487 62.383C27.7487 65.3407 30.1342 67.7468 33.0661 67.7468C35.998 67.7468 38.3835 65.3407 38.3835 62.383C38.3835 59.4254 35.998 57.0191 33.0661 57.0191ZM33.0661 64.8211C31.7333 64.8211 30.6491 63.7274 30.6491 62.383C30.6491 61.0385 31.7333 59.9448 33.0661 59.9448C34.399 59.9448 35.4831 61.0385 35.4831 62.383C35.4831 63.7274 34.3988 64.8211 33.0661 64.8211Z" fill="white"/>
<path d="M78.2134 57.0191C75.2815 57.0191 72.896 59.4252 72.896 62.383C72.896 65.3407 75.2815 67.7468 78.2134 67.7468C81.1453 67.7468 83.5308 65.3407 83.5308 62.383C83.5308 59.4254 81.1453 57.0191 78.2134 57.0191ZM78.2134 64.8211C76.8806 64.8211 75.7964 63.7274 75.7964 62.383C75.7964 61.0385 76.8806 59.9448 78.2134 59.9448C79.5462 59.9448 80.6304 61.0385 80.6304 62.383C80.6304 63.7274 79.5462 64.8211 78.2134 64.8211Z" fill="white"/>
<path d="M13.7286 23.8612H6.63883C5.83774 23.8612 5.18863 24.5161 5.18863 25.324C5.18863 26.1319 5.83774 26.7869 6.63883 26.7869H13.7286C14.5297 26.7869 15.1788 26.1319 15.1788 25.324C15.1788 24.5161 14.5297 23.8612 13.7286 23.8612Z" fill="white"/>
</svg>
