<svg  xmlns="http://www.w3.org/2000/svg">
    <symbol id="adv-03">
<path d="M71.464 13.1559H53.2733V6.65952C53.269 3.07307 50.3628 0.166879 46.7769 0.162598H31.1841C27.5981 0.166879 24.692 3.07307 24.6877 6.65952V13.1559H6.49692C2.91048 13.1602 0.00428169 16.0664 0 19.6528V66.4292C0.00428169 70.0156 2.91048 72.9218 6.49692 72.9261H71.464C75.0505 72.9218 77.9567 70.0156 77.961 66.4292V19.6528C77.9567 16.0664 75.0505 13.1602 71.464 13.1559ZM27.2861 6.65952C27.2861 4.50637 29.0314 2.76105 31.1841 2.76105H46.7764C48.9295 2.76105 50.6743 4.50637 50.6743 6.65952V13.1559H48.0758V6.65952C48.0758 5.9418 47.4941 5.36003 46.7769 5.36003H31.1841C30.4669 5.36003 29.8851 5.9418 29.8851 6.65952V13.1559H27.2861V6.65952ZM32.4836 13.1559V7.95848H45.4774V13.1559H32.4836ZM2.59845 19.6528C2.59845 17.5002 4.34377 15.7549 6.49692 15.7549H71.464C73.6172 15.7549 75.362 17.5002 75.362 19.6528V33.0984L45.4774 46.2464V43.041C45.4774 42.3233 44.8956 41.7415 44.1779 41.7415H33.783C33.0653 41.7415 32.4836 42.3233 32.4836 43.041V46.2464L2.59845 33.0984V19.6528ZM42.8784 46.9389H35.0825V44.3405H42.8784V46.9389ZM35.0825 49.5379H42.8784V53.4359C42.8784 55.5885 41.1336 57.3338 38.9805 57.3338C36.8279 57.3338 35.0825 55.5885 35.0825 53.4359V49.5379ZM71.464 70.3277H6.49692C4.34377 70.3277 2.59845 68.5823 2.59845 66.4292V35.9377L32.4836 49.0868V53.4359C32.4836 57.0239 35.3924 59.9328 38.9805 59.9328C42.5685 59.9328 45.4774 57.0239 45.4774 53.4359V49.0868L75.362 35.9377V66.4292C75.3625 68.5823 73.6172 70.3277 71.464 70.3277Z" fill="white"/>
<path d="M37.681 52.1364H40.28V54.7353H37.681V52.1364Z" fill="white"/>
    </symbol>
</svg>
