<svg width="74" height="74" viewBox="0 0 74 74" fill="none" xmlns="http://www.w3.org/2000/svg">
<path d="M55.2367 8.6123L36.9867 0.623668C36.6764 0.488237 36.3237 0.488237 36.0134 0.623668L17.7634 8.6123C17.3202 8.80572 17.0336 9.24322 17.0334 9.72677V28.8284C17.04 33.1212 19.1028 37.151 22.5814 39.6665L35.1945 48.7635C35.9735 49.3274 37.0265 49.3274 37.8055 48.7635L50.4187 39.6677C53.8973 37.1522 55.9601 33.1224 55.9667 28.8296V9.72677C55.9664 9.24322 55.6799 8.80572 55.2367 8.6123ZM53.5334 28.8296C53.5278 32.3408 51.8404 35.6368 48.9952 37.6943L36.5 46.7061L24.0049 37.6943C21.1596 35.6368 19.4723 32.3408 19.4667 28.8296V10.5225L36.5 3.06673L53.5334 10.5225V28.8296Z" fill="white"/>
<path d="M36.0134 5.9356L22.63 11.7951C22.1869 11.9885 21.9003 12.426 21.9 12.9095V28.8296C21.9038 31.5594 23.2158 34.122 25.4284 35.7208L35.7883 43.1936C36.2133 43.5001 36.7868 43.5001 37.2118 43.1936L47.5717 35.7208C49.7842 34.122 51.0963 31.5594 51.1 28.8296V12.9095C51.0998 12.426 50.8132 11.9885 50.37 11.7951L36.9867 5.9356C36.6764 5.80017 36.3237 5.80017 36.0134 5.9356ZM48.6667 13.704V28.8296C48.663 30.7776 47.7266 32.6059 46.1482 33.7474L36.5 40.7067L26.8519 33.7474C25.2734 32.6059 24.3371 30.7776 24.3334 28.8296V13.704L36.5 8.37867L48.6667 13.704Z" fill="white"/>
<path d="M10.0801 40.9148L7.44846 34.7658C6.88882 33.498 5.69537 32.6252 4.31766 32.476C2.93996 32.3268 1.58732 32.9239 0.769256 34.0424C-0.0488048 35.161 -0.207997 36.631 0.351644 37.8987L5.11976 48.3876C5.76303 49.8075 6.6579 51.0993 7.76114 52.2006L15.2595 59.7001C14.8372 60.1477 14.6014 60.7394 14.6 61.3548V71.0881C14.6 72.432 15.6895 73.5215 17.0334 73.5215H30.4167C31.7606 73.5215 32.85 72.432 32.85 71.0881V61.3548C32.85 60.0109 31.7606 58.9215 30.4167 58.9215V56.6573C30.454 53.7758 29.5139 50.9667 27.7498 48.6881C26.7155 47.3278 25.3059 46.2996 23.6946 45.7304C21.1321 44.6537 18.7755 43.1414 16.7292 41.2603C14.8298 39.696 12.1314 39.5558 10.0801 40.9148ZM30.4167 71.0881H17.0334V61.3548H30.4167V71.0881ZM25.8505 50.2077C27.2687 52.0554 28.0204 54.3284 27.9834 56.6573V58.9215H17.9227L9.48151 50.4802C8.58499 49.585 7.85751 48.5352 7.33409 47.3814L2.56598 36.8925C2.36249 36.4448 2.40036 35.9244 2.66652 35.5109C2.93267 35.0974 3.39066 34.8475 3.88241 34.8473C4.46111 34.8468 4.98412 35.1921 5.21101 35.7245L7.93269 42.0719C8.65542 43.7653 9.69716 45.304 11.0011 46.6039L16.5589 52.1629C16.8643 52.4792 17.3167 52.606 17.7421 52.4947C18.1675 52.3833 18.4997 52.0511 18.611 51.6257C18.7224 51.2004 18.5955 50.748 18.2792 50.4425L12.7215 44.8836C12.1626 44.3261 11.6601 43.7148 11.2213 43.0586C12.3898 42.1595 14.0243 42.1867 15.1621 43.1243C17.4365 45.2115 20.0652 46.8761 22.9245 48.0396C24.0894 48.4632 25.1061 49.2165 25.8505 50.2077Z" fill="white"/>
<path d="M26.7667 65.0048H25.55C24.8781 65.0048 24.3334 65.5496 24.3334 66.2215C24.3334 66.8934 24.8781 67.4382 25.55 67.4382H26.7667C27.4386 67.4382 27.9834 66.8934 27.9834 66.2215C27.9834 65.5496 27.4386 65.0048 26.7667 65.0048Z" fill="white"/>
<path d="M67.8803 48.3875L72.6484 37.8987C73.2347 36.6266 73.0896 35.1374 72.269 34.0024C71.4483 32.8674 70.0794 32.263 68.6878 32.4212C67.2961 32.5794 66.0978 33.4755 65.5528 34.7657L62.9272 40.8917C60.8688 39.5393 58.1691 39.6873 56.2709 41.2566C54.2246 43.1377 51.8679 44.65 49.3054 45.7267C47.6942 46.2959 46.2846 47.3241 45.2503 48.6844C43.4854 50.964 42.5453 53.7745 42.5834 56.6572V58.9214C41.2395 58.9214 40.15 60.0109 40.15 61.3548V71.0881C40.15 72.432 41.2395 73.5214 42.5834 73.5214H55.9667C57.3106 73.5214 58.4 72.432 58.4 71.0881V61.3548C58.3987 60.7394 58.1629 60.1477 57.7406 59.7001L65.2389 52.2006C66.3422 51.0993 67.237 49.8075 67.8803 48.3875ZM55.9667 71.0881H42.5834V61.3548H55.9667V71.0881ZM55.0773 58.9214H45.0167V56.6572C44.98 54.3287 45.7316 52.0562 47.1495 50.2089C47.8923 49.2183 48.9067 48.4647 50.0695 48.0396C52.9294 46.8764 55.5585 45.2118 57.8331 43.1242C58.9696 42.1796 60.6088 42.1477 61.7811 43.0476C61.3411 43.7086 60.8361 44.3241 60.2737 44.8848L54.716 50.4437C54.2549 50.9211 54.2615 51.6799 54.7308 52.1492C55.2001 52.6185 55.9589 52.6251 56.4363 52.1641L61.9941 46.6051C63.298 45.3052 64.3398 43.7665 65.0625 42.073L67.7842 35.7245C68.0117 35.1928 68.5345 34.8481 69.1128 34.8485C69.6045 34.8487 70.0625 35.0986 70.3287 35.5121C70.5948 35.9256 70.6327 36.446 70.4292 36.8937L65.6611 47.3826C65.1377 48.5364 64.4102 49.5862 63.5137 50.4814L55.0773 58.9214Z" fill="white"/>
<path d="M47.45 65.0048H46.2334C45.5614 65.0048 45.0167 65.5496 45.0167 66.2215C45.0167 66.8934 45.5614 67.4382 46.2334 67.4382H47.45C48.122 67.4382 48.6667 66.8934 48.6667 66.2215C48.6667 65.5496 48.122 65.0048 47.45 65.0048Z" fill="white"/>
<path d="M29.93 26.3148C29.3925 25.9116 28.6299 26.0206 28.2267 26.5581C27.8235 27.0957 27.9325 27.8583 28.47 28.2614L33.3367 31.9114C33.5473 32.0694 33.8034 32.1548 34.0667 32.1548C34.1356 32.1545 34.2043 32.1489 34.2723 32.1377C34.6018 32.0812 34.8935 31.8916 35.079 31.6134L44.8123 17.0134C45.0535 16.6517 45.0835 16.1888 44.8909 15.7991C44.6984 15.4093 44.3125 15.1519 43.8787 15.1238C43.4449 15.0957 43.029 15.3012 42.7878 15.6629L33.7674 29.1934L29.93 26.3148Z" fill="white"/>
</svg>
