<svg width="73" height="74" viewBox="0 0 73 74" fill="none" xmlns="http://www.w3.org/2000/svg">
<path d="M0.160594 7.21264L5.02543 15.7253C5.18953 16.013 5.46419 16.2211 5.78538 16.3016L10.324 17.4363L25.8906 33.0023L27.6106 31.2829L11.8004 15.4737C11.6448 15.3176 11.4497 15.207 11.2361 15.1535L6.87501 14.0594L2.73309 6.80742L6.28417 3.25646L13.5394 7.40224L14.634 11.7631C14.6871 11.9773 14.7981 12.1729 14.9537 12.3285L30.764 28.1382L32.4835 26.4182L16.9169 10.8521L15.7822 6.31615C15.7017 5.99447 15.4935 5.71932 15.2059 5.55473L6.6924 0.690549C6.21763 0.420401 5.62028 0.500445 5.23305 0.886157L0.368715 5.75083C-0.0225132 6.13555 -0.107563 6.73388 0.160594 7.21264Z" fill="white"/>
<path d="M50.7226 24.4892L23.9675 51.2439L22.2475 49.5239L49.0031 22.7697L50.7226 24.4892Z" fill="white"/>
<path d="M19.2848 52.1904C19.0646 51.8242 18.6694 51.6006 18.2421 51.6006H10.9454C10.5186 51.6006 10.1229 51.8242 9.90328 52.1904L6.25465 58.2707C6.02301 58.656 6.02301 59.1377 6.25465 59.5234L9.90328 65.6038C10.1229 65.9695 10.5186 66.1936 10.9454 66.1936H18.2421C18.6694 66.1936 19.0646 65.9695 19.2848 65.6038L22.9329 59.5234C23.1645 59.1377 23.1645 58.656 22.9329 58.2707L19.2848 52.1904ZM17.5542 63.7613H11.6338L8.71509 58.8971L11.6338 54.0324H17.5542L20.4729 58.8971L17.5542 63.7613Z" fill="white"/>
<path d="M58.3751 29.7105C66.4072 29.7375 72.9411 23.248 72.9681 15.216C72.9721 13.9934 72.822 12.7757 72.5213 11.5905C72.3592 10.9387 71.6993 10.542 71.0475 10.7041C70.8333 10.7576 70.6382 10.8682 70.4821 11.0237L62.9117 18.5889L56.9052 16.5873L54.902 10.5825L62.4725 3.01083C62.9472 2.53557 62.9467 1.76564 62.4715 1.29088C62.3149 1.13429 62.1177 1.02323 61.9021 0.970203C54.1126 -1.00238 46.1995 3.71271 44.2268 11.5015C43.9271 12.6832 43.7775 13.8978 43.7815 15.117C43.7845 16.0745 43.8831 17.029 44.0772 17.9666L17.4432 44.5992C16.5056 44.4056 15.5511 44.3071 14.594 44.3036C6.53381 44.3036 0 50.8372 0 58.8971C0 66.9565 6.53381 73.4901 14.594 73.4901C22.6537 73.4901 29.1875 66.9565 29.1875 58.8971C29.1845 57.9396 29.0855 56.985 28.8919 56.0475L35.2681 49.6715L38.0567 52.46C38.532 52.9348 39.3014 52.9348 39.7767 52.46L40.3846 51.8517C40.9179 51.3219 41.7799 51.3219 42.3132 51.8517C42.846 52.383 42.847 53.2455 42.3157 53.7783C42.3152 53.7788 42.3142 53.7798 42.3132 53.7808L41.7053 54.3886C41.2306 54.8634 41.2306 55.6333 41.7053 56.1081L56.2128 70.615C60.0285 74.4657 66.2431 74.4937 70.0939 70.6781C73.9441 66.8625 73.9722 60.6476 70.1564 56.7974C70.1359 56.7764 70.1149 56.7554 70.0939 56.7344L55.5864 42.2279C55.1117 41.7532 54.3417 41.7532 53.8669 42.2279L53.2591 42.8358C52.7253 43.366 51.8638 43.366 51.3299 42.8358C50.7976 42.3045 50.7961 41.442 51.3274 40.9097C51.3284 40.9087 51.3294 40.9082 51.3299 40.9072L51.9383 40.2989C52.4131 39.8241 52.4131 39.0542 51.9383 38.5794L49.1497 35.7909L55.5259 29.4149C56.4634 29.6085 57.418 29.7075 58.3751 29.7105ZM63.1533 71.0583C62.2698 71.0568 61.3938 70.8972 60.5668 70.5865L70.0649 61.0883C71.4982 64.9009 69.5696 69.1532 65.7569 70.5865C64.9249 70.8992 64.0429 71.0593 63.1533 71.0583ZM49.3758 39.4514C48.029 41.0578 48.2401 43.4521 49.8466 44.7983C51.2584 45.9815 53.3161 45.9805 54.7264 44.7948L68.3744 58.4543C68.5225 58.6029 68.6611 58.7595 68.7951 58.9186L58.3971 69.3163C58.2375 69.1827 58.0809 69.0442 57.9323 68.8956L44.2738 55.2366C45.6206 53.6302 45.4095 51.2359 43.8031 49.8896C42.3912 48.706 40.333 48.7075 38.9227 49.8926L36.9771 47.9471L47.4297 37.5103L49.3758 39.4514ZM54.2867 27.2202L26.6981 54.8023C26.3954 55.1045 26.2738 55.5432 26.3769 55.958C28.0454 62.5101 24.0861 69.1742 17.5332 70.8422C10.9809 72.5106 4.31652 68.5514 2.64805 61.9988C0.980072 55.4467 4.93938 48.7825 11.4922 47.1141C13.4744 46.6098 15.5511 46.6098 17.5332 47.1141C17.948 47.2157 18.3857 47.0941 18.6889 46.7934L46.271 19.2107C46.5732 18.9086 46.6947 18.4698 46.5907 18.0556C44.9337 11.58 48.84 4.98741 55.3158 3.33C56.5395 3.01733 57.8052 2.89726 59.066 2.97581L52.6507 9.39334C52.325 9.71852 52.211 10.2003 52.3565 10.637L54.7885 17.934C54.91 18.2967 55.1952 18.5819 55.5584 18.7025L62.8557 21.1348C63.2919 21.2804 63.7737 21.1668 64.0994 20.8416L70.5146 14.4266C70.5292 14.6587 70.5367 14.8884 70.5367 15.117C70.5707 21.7992 65.1815 27.2437 58.4991 27.2782C57.466 27.2832 56.4364 27.1561 55.4358 26.9C55.0211 26.7964 54.5823 26.9175 54.2802 27.2197H54.2867V27.2202Z" fill="white"/>
<path d="M62.8847 61.6851L61.1647 63.4051L49.0036 51.2444L50.7231 49.5244L62.8847 61.6851Z" fill="white"/>
</svg>
