<svg width="73" height="74" viewBox="0 0 73 74" fill="none" xmlns="http://www.w3.org/2000/svg">
<path d="M36.5 23.6381C36.8227 23.6382 37.1322 23.51 37.3605 23.2818C37.5886 23.0536 37.7168 22.7441 37.7168 22.4213V12.6881C37.7168 12.0161 37.1721 11.4714 36.5001 11.4714C35.8282 11.4714 35.2835 12.0161 35.2835 12.6881V22.4215C35.2834 22.7441 35.4115 23.0536 35.6398 23.2819C35.8678 23.51 36.1773 23.6382 36.5 23.6381Z" fill="white"/>
<path d="M70.5666 13.9049H68.1332V9.0381C68.1317 7.69488 67.0431 6.60629 65.6999 6.60472H48.3343C45.6018 2.78677 41.1951 0.521484 36.5 0.521484C31.8049 0.521484 27.3982 2.78677 24.6657 6.60487H7.3C5.95677 6.60643 4.86819 7.69488 4.86662 9.03825V13.9049H2.43338C1.09001 13.9063 0.00156836 14.9949 0 16.3381V66.2215C0.00156836 67.5647 1.09001 68.6533 2.43338 68.6549H28.8353C30.2313 71.6252 33.2178 73.5215 36.5 73.5215C39.7822 73.5215 42.7687 71.6252 44.1647 68.6549H70.5666C71.9099 68.6533 72.9984 67.5648 73 66.2215V16.3381C72.9984 14.9949 71.91 13.9063 70.5666 13.9049ZM49.7552 9.0381H65.7V49.1881H43.8C41.5088 49.1878 39.3148 50.114 37.7166 51.7559V29.6599C42.4595 29.2759 46.7154 26.5983 49.1145 22.4889C51.5135 18.3795 51.7527 13.3569 49.7552 9.0381ZM43.8 57.7049H65.7V61.3549H37.7166V57.7049C37.7206 54.3467 40.4419 51.6255 43.8 51.6215H65.7V55.2715H43.8C43.128 55.2715 42.5834 55.8163 42.5834 56.4881C42.5834 57.1601 43.128 57.7049 43.8 57.7049ZM36.5 2.95487C43.2194 2.95487 48.6666 8.40206 48.6666 15.1215C48.6666 21.8409 43.2194 27.2881 36.5 27.2881C29.7806 27.2881 24.3334 21.8409 24.3334 15.1215C24.3411 8.4052 29.7837 2.96256 36.5 2.95487ZM7.3 9.0381H23.2448C21.2473 13.3569 21.4864 18.3794 23.8854 22.4889C26.2844 26.5983 30.5404 29.2759 35.2832 29.6599V51.7559C33.6852 50.114 31.4912 49.1878 29.1999 49.1881H7.3V9.0381ZM7.3 57.7049H29.2C29.872 57.7049 30.4166 57.1601 30.4166 56.4882C30.4166 55.8163 29.8718 55.2716 29.2 55.2716H7.3V51.6216H29.2C32.5581 51.6256 35.2794 54.3469 35.2834 57.705V61.355H7.3V57.7049ZM70.5666 66.2215H43.3747C43.3613 66.2215 43.3503 66.2286 43.3369 66.229C43.2508 66.2367 43.1657 66.2539 43.0833 66.2802C42.9395 66.2931 42.8042 66.3538 42.6993 66.4529C42.5627 66.5192 42.4525 66.6298 42.3868 66.7667C42.3303 66.8403 42.2828 66.9204 42.2452 67.0052C42.2405 67.0176 42.2301 67.0258 42.2255 67.0383C41.3682 69.4653 39.0738 71.0881 36.4999 71.0881C33.9259 71.0881 31.6315 69.4653 30.7742 67.0383C30.7698 67.0256 30.7594 67.0176 30.7545 67.0052C30.7176 66.9225 30.6714 66.8443 30.6167 66.7721C30.5539 66.6382 30.4478 66.5293 30.3155 66.4632C30.2562 66.4142 30.1922 66.3712 30.1246 66.3345C30.061 66.3119 29.9956 66.2946 29.9291 66.2829C29.8425 66.2546 29.7528 66.2365 29.6618 66.2289C29.6487 66.2285 29.638 66.2215 29.625 66.2215H2.43338V16.3381H4.86676V61.3547C4.86833 62.6979 5.95677 63.7865 7.30014 63.7881H65.7001C67.0434 63.7865 68.132 62.6981 68.1335 61.3547V16.3381H70.5669L70.5666 66.2215Z" fill="white"/>
<path d="M48.6666 29.7214C48.6665 30.0441 48.7947 30.3536 49.0229 30.5819C49.251 30.81 49.5606 30.9382 49.8834 30.9382H62.05C62.722 30.9382 63.2666 30.3934 63.2666 29.7216C63.2666 29.0498 62.722 28.505 62.05 28.505H49.8834C49.5607 28.5048 49.2512 28.633 49.0229 28.8613C48.7948 29.0892 48.6666 29.3988 48.6666 29.7214Z" fill="white"/>
<path d="M62.05 34.5881H45.0166C44.3447 34.5881 43.8 35.1328 43.8 35.8047C43.8 36.4767 44.3447 37.0214 45.0166 37.0214H62.05C62.722 37.0214 63.2666 36.4767 63.2666 35.8047C63.2666 35.1328 62.722 34.5881 62.05 34.5881Z" fill="white"/>
<path d="M62.05 40.6715H45.0166C44.3447 40.6715 43.8 41.2162 43.8 41.8881C43.8 42.5601 44.3447 43.1047 45.0166 43.1047H62.05C62.722 43.1047 63.2666 42.5601 63.2666 41.8881C63.2666 41.2162 62.722 40.6715 62.05 40.6715Z" fill="white"/>
<path d="M10.95 30.9381H23.1166C23.7886 30.9381 24.3332 30.3933 24.3332 29.7215C24.3332 29.0497 23.7886 28.5049 23.1166 28.5049H10.95C10.278 28.5049 9.73338 29.0495 9.73338 29.7215C9.73338 30.3935 10.278 30.9381 10.95 30.9381Z" fill="white"/>
<path d="M10.95 37.0215H27.9834C28.6553 37.0215 29.2 36.4769 29.2 35.8049C29.2 35.1329 28.6553 34.5883 27.9834 34.5883H10.95C10.278 34.5883 9.73338 35.1329 9.73338 35.8049C9.73338 36.4769 10.278 37.0215 10.95 37.0215Z" fill="white"/>
<path d="M27.9834 40.6715H10.95C10.278 40.6715 9.73338 41.2162 9.73338 41.8881C9.73338 42.5601 10.278 43.1047 10.95 43.1047H27.9834C28.6553 43.1047 29.2 42.5601 29.2 41.8881C29.2 41.2162 28.6552 40.6715 27.9834 40.6715Z" fill="white"/>
<path d="M36.5 9.03806C36.8227 9.0382 37.1322 8.91002 37.3605 8.68176C37.5886 8.45363 37.7168 8.14409 37.7168 7.8213V6.60468C37.7168 5.93271 37.1721 5.38806 36.5001 5.38806C35.8282 5.38806 35.2835 5.93271 35.2835 6.60468V7.82144C35.2834 8.14409 35.4115 8.45363 35.6398 8.6819C35.8678 8.91002 36.1773 9.0382 36.5 9.03806Z" fill="white"/>
</svg>
