<svg width="152" height="40" viewBox="0 0 152 40" fill="none" xmlns="http://www.w3.org/2000/svg">
<path d="M45.4998 25.9181H38.8171V15.8525H31.091V25.9181H24.4092V1.22705H31.0916V10.3807H38.8176V1.22705H45.5004L45.4998 25.9181Z" fill="white"/>
<path d="M50.1983 25.9181V1.22705H56.8807V25.9181H50.1983Z" fill="white"/>
<path d="M77.6703 18.4195C77.6703 19.9509 77.2831 21.3102 76.5089 22.498C75.735 23.6861 74.6181 24.609 73.1593 25.2676C71.7009 25.9262 69.9896 26.2557 68.0256 26.2557C66.3876 26.2557 65.013 26.1401 63.9021 25.9095C62.791 25.6789 61.6353 25.2762 60.4348 24.7021V18.7573C61.7028 19.4104 63.0211 19.92 64.3908 20.2858C65.7599 20.6519 67.0167 20.8343 68.1612 20.8343C69.1488 20.8343 69.8724 20.6628 70.3326 20.3192C70.7931 19.9762 71.0226 19.5338 71.0226 18.9934C71.0226 18.6556 70.9301 18.3601 70.7449 18.1068C70.5593 17.8534 70.262 17.5975 69.8529 17.3383C69.4432 17.0795 68.3519 16.5506 66.5792 15.7508C64.9745 15.0189 63.7711 14.3096 62.9685 13.6227C62.1662 12.9362 61.5715 12.1479 61.1846 11.2584C60.7973 10.3692 60.604 9.31627 60.604 8.10022C60.604 5.82608 61.4288 4.05288 63.0782 2.78033C64.728 1.50808 66.9946 0.87195 69.8784 0.87195C72.4257 0.87195 75.0234 1.46311 77.6717 2.64515L75.635 7.79614C73.3346 6.73804 71.3484 6.20856 69.6765 6.20856C68.8124 6.20856 68.1844 6.36046 67.7912 6.66454C67.3982 6.96863 67.202 7.34592 67.202 7.79614C67.202 8.28037 67.4516 8.71416 67.9506 9.09664C68.4499 9.47941 69.8049 10.1775 72.0154 11.1909C74.1363 12.1479 75.6092 13.1754 76.4339 14.273C77.2584 15.3709 77.6703 16.7535 77.6703 18.4195Z" fill="white"/>
<path d="M103.88 13.5389C103.88 17.6934 102.865 20.8516 100.834 23.0133C98.8032 25.1751 95.8291 26.2559 91.9128 26.2559C88.0525 26.2559 85.093 25.169 83.0339 22.996C80.9747 20.8236 79.9452 17.6591 79.9452 13.5046C79.9452 9.39495 80.969 6.25668 83.0169 4.08918C85.0649 1.92225 88.041 0.838501 91.9464 0.838501C95.8627 0.838501 98.8307 1.9136 100.851 4.0641C102.87 6.21489 103.88 9.37304 103.88 13.5389ZM86.947 13.5389C86.947 18.3128 88.6023 20.6997 91.9125 20.6997C93.5956 20.6997 94.844 20.1198 95.6576 18.9602C96.4711 17.8009 96.8779 15.9937 96.8779 13.5389C96.8779 11.073 96.4651 9.25198 95.6404 8.07542C94.8156 6.89915 93.5844 6.31058 91.9461 6.31058C88.6132 6.31029 86.947 8.71991 86.947 13.5389Z" fill="white"/>
<path d="M131.134 25.9181H122.414L113.426 8.52277H113.275C113.488 11.2587 113.594 13.3472 113.594 14.7883V25.9178H107.703V1.22705H116.388L125.343 18.3858H125.444C125.287 15.8975 125.209 13.8994 125.209 12.3903V1.22705H131.134V25.9181Z" fill="white"/>
<path d="M11.4534 26.6384C9.95642 26.6384 8.53502 26.3798 7.22852 25.8694C5.90422 25.352 4.74481 24.5648 3.78246 23.5287C2.82873 22.5017 2.07034 21.2242 1.52884 19.7321C0.991365 18.2523 0.718748 16.5117 0.718748 14.5589C0.718748 12.6583 0.966086 10.9159 1.45444 9.38023C1.94883 7.82205 2.67073 6.48206 3.60062 5.39744C4.53769 4.30447 5.6948 3.45274 7.04008 2.86591C8.37644 2.28339 9.88345 1.98795 11.5194 1.98795C12.9463 1.98795 14.2643 2.20643 15.4369 2.63734C16.6153 3.07113 17.6477 3.67929 18.5058 4.44513C19.3656 5.21384 20.0585 6.13099 20.5658 7.17122C21.0674 8.20194 21.2311 8.97987 21.2383 9.01273L21.4167 9.87945L15.2591 9.87743L15.0675 9.45574C15.0661 9.45315 14.7521 8.79425 14.0428 8.23364C13.2965 7.64392 12.4812 7.35713 11.551 7.35713C9.90212 7.35713 8.73237 7.92005 7.97571 9.07787C7.16619 10.3158 6.75568 12.0717 6.75568 14.2969C6.75568 16.565 7.16015 18.3316 7.95876 19.5476C8.7045 20.6841 9.80503 21.2363 11.3232 21.2363C12.5007 21.2363 13.4059 20.9377 14.0908 20.3235C14.69 19.7865 15.4036 18.6587 15.6282 18.2696L15.8302 17.9197L21.3782 17.7877L21.1915 18.6783C21.1771 18.7452 20.841 20.3284 20.2797 21.407C19.7218 22.4818 19.0051 23.4188 18.1513 24.1942C17.2927 24.9724 16.2878 25.5814 15.1646 26.004C14.0445 26.4248 12.7961 26.6384 11.4534 26.6384Z" fill="white"/>
<path d="M11.5186 2.70824C12.8667 2.70824 14.0902 2.91 15.1887 3.31381C16.2866 3.71791 17.2329 4.27449 18.0272 4.98325C18.8212 5.69259 19.4515 6.52731 19.9194 7.48741C20.3871 8.44808 20.5336 9.158 20.5336 9.158L15.721 9.15685C15.721 9.15685 15.3565 8.3547 14.4872 7.66726C13.6174 6.97983 12.6378 6.63626 11.5505 6.63626C9.65823 6.63626 8.26584 7.3185 7.37445 8.68242C6.48248 10.0466 6.03693 11.9184 6.03693 14.2966C6.03693 16.7189 6.47703 18.6016 7.35836 19.9436C8.23913 21.2859 9.56085 21.9566 11.3227 21.9566C12.6708 21.9566 13.7532 21.5914 14.5688 20.8602C15.3849 20.1292 16.2493 18.6299 16.2493 18.6299L20.4879 18.529C20.4879 18.529 20.1645 20.0693 19.6425 21.0732C19.1211 22.0771 18.4627 22.9392 17.669 23.6589C16.8744 24.3795 15.956 24.9361 14.9118 25.3287C13.8676 25.7215 12.715 25.9178 11.4534 25.9178C10.0391 25.9178 8.718 25.6777 7.48907 25.1978C6.26014 24.7182 5.19955 23.9979 4.30815 23.0375C3.41648 22.0774 2.71439 20.8933 2.20392 19.4856C1.69229 18.0776 1.43691 16.4356 1.43691 14.5586C1.43691 12.7254 1.67046 11.0719 2.13842 9.5987C2.60581 8.12555 3.27514 6.88183 4.1447 5.86697C5.01455 4.85211 6.07514 4.07215 7.32562 3.52624C8.57638 2.98148 9.97394 2.70824 11.5186 2.70824ZM11.5186 1.26708C9.78377 1.26708 8.18081 1.58269 6.75367 2.2047C5.30785 2.83564 4.06398 3.75164 3.05595 4.92733C2.06287 6.08603 1.29357 7.51047 0.769878 9.16175C0.259116 10.7678 0 12.5839 0 14.5589C0 16.5961 0.287268 18.42 0.854047 19.9794C1.4283 21.5623 2.23667 22.9222 3.25704 24.0204C4.29264 25.1358 5.5414 25.9841 6.96797 26.541C8.35777 27.084 9.86679 27.3592 11.4531 27.3592C12.8828 27.3592 14.2157 27.1301 15.4157 26.6787C16.6239 26.2242 17.706 25.5679 18.6313 24.7288C19.5494 23.8956 20.3179 22.8902 20.9157 21.7396C21.5118 20.5939 21.8553 19.004 21.8927 18.8267L22.267 17.0457L15.409 17.2086L15.0054 17.9087C14.7141 18.4125 14.0776 19.3683 13.6113 19.7857C13.0638 20.2771 12.3146 20.5158 11.3218 20.5158C10.0469 20.5158 9.16815 20.0823 8.55713 19.1513C7.83753 18.0548 7.47298 16.4214 7.47298 14.2969C7.47298 12.2147 7.84385 10.5917 8.57523 9.47332C8.96678 8.87409 9.70132 8.07771 11.5502 8.07771C12.3132 8.07771 12.9828 8.31377 13.5978 8.79973C14.1224 9.2142 14.3818 9.69468 14.4168 9.76271L14.7845 10.632L15.7202 10.598L22.2971 10.5994L21.9398 8.86573C21.9214 8.77494 21.7416 7.94656 21.2098 6.85445C20.6612 5.72891 19.912 4.73739 18.9827 3.90642C18.0559 3.07948 16.9462 2.42491 15.6837 1.95999C14.4312 1.50055 13.0299 1.26708 11.5186 1.26708Z" fill="white"/>
<path d="M55.0532 30.4188H56.5458L54.1756 37.4145H52.5637L50.1983 30.4188H51.691L53.0024 34.5817C53.0753 34.8276 53.1509 35.1138 53.229 35.4407C53.3069 35.7675 53.3554 35.9949 53.3744 36.1223C53.4094 35.8286 53.5286 35.3153 53.732 34.5814L55.0532 30.4188Z" fill="white"/>
<path d="M60.4119 37.4148L60.1306 36.6876H60.0924C59.8474 36.9969 59.5957 37.2116 59.3366 37.3309C59.0775 37.4508 58.7397 37.5105 58.3231 37.5105C57.8112 37.5105 57.4082 37.3638 57.1143 37.0704C56.8201 36.7767 56.6731 36.359 56.6731 35.8166C56.6731 35.2487 56.871 34.8299 57.2668 34.5607C57.6627 34.291 58.2596 34.1419 59.0577 34.1131L59.983 34.0843V33.85C59.983 33.3075 59.7063 33.0366 59.153 33.0366C58.727 33.0366 58.226 33.1657 57.6509 33.4242L57.1692 32.4385C57.7828 32.1163 58.463 31.9551 59.2102 31.9551C59.9255 31.9551 60.4739 32.1114 60.8557 32.4241C61.2375 32.7368 61.4279 33.2118 61.4279 33.85V37.4148H60.4119ZM59.9824 34.936L59.4196 34.955C58.9968 34.9677 58.6819 35.0444 58.4754 35.1848C58.2686 35.3251 58.1654 35.539 58.1654 35.8261C58.1654 36.2377 58.4007 36.4435 58.8712 36.4435C59.2082 36.4435 59.4777 36.3461 59.6796 36.1515C59.8816 35.9569 59.9824 35.6987 59.9824 35.3764V34.936Z" fill="white"/>
<path d="M64.0964 37.4148H62.6419V29.9692H64.0964V37.4148Z" fill="white"/>
<path d="M69.1163 37.4148L68.9207 36.7305H68.8443C68.6886 36.9793 68.4674 37.1715 68.1813 37.3073C67.8952 37.4428 67.5691 37.5105 67.2037 37.5105C66.5772 37.5105 66.1052 37.3422 65.7872 37.0055C65.4692 36.6691 65.3103 36.1849 65.3103 35.5534V32.0649H66.7648V35.1897C66.7648 35.5756 66.8331 35.8653 66.9699 36.0581C67.1066 36.2512 67.3244 36.3478 67.6231 36.3478C68.0302 36.3478 68.3241 36.2111 68.5053 35.9388C68.6866 35.6658 68.7771 35.2136 68.7771 34.5821V32.0652H70.2315V37.4151L69.1163 37.4148Z" fill="white"/>
<path d="M73.8885 37.5105C73.0301 37.5105 72.359 37.273 71.8758 36.7974C71.3924 36.3221 71.1511 35.6491 71.1511 34.778C71.1511 33.8816 71.3743 33.1884 71.8213 32.6987C72.268 32.2093 72.8856 31.9643 73.6741 31.9643C74.4277 31.9643 75.0143 32.1796 75.434 32.6102C75.8537 33.0409 76.0633 33.6361 76.0633 34.395V35.1032H72.6248C72.6406 35.5176 72.7629 35.8419 72.9919 36.0745C73.2208 36.3071 73.542 36.4238 73.9554 36.4238C74.2766 36.4238 74.5802 36.3904 74.8663 36.3232C75.1524 36.2561 75.4512 36.1492 75.7629 36.0027V37.132C75.5084 37.2594 75.2366 37.3545 74.9473 37.4165C74.6578 37.4796 74.3047 37.5105 73.8885 37.5105ZM73.6833 33.0028C73.3748 33.0028 73.1332 33.1008 72.9586 33.2971C72.7836 33.4931 72.6834 33.7715 72.6581 34.1318H74.6991C74.6928 33.7712 74.5989 33.4928 74.4179 33.2971C74.2366 33.1008 73.9916 33.0028 73.6833 33.0028Z" fill="white"/>
<path d="M78.9208 30.4188H81.0908C82.0793 30.4188 82.7972 30.56 83.2442 30.8422C83.6909 31.1246 83.9141 31.5737 83.9141 32.1894C83.9141 32.6073 83.8164 32.9503 83.6208 33.2181C83.4255 33.4861 83.1655 33.647 82.8411 33.7014V33.7493C83.283 33.8481 83.6015 34.0332 83.7975 34.3044C83.9928 34.5754 84.0908 34.9359 84.0908 35.3859C84.0908 36.024 83.861 36.5215 83.4016 36.8789C82.9423 37.2363 82.3183 37.4147 81.5298 37.4147H78.9211L78.9208 30.4188ZM80.3994 33.1895H81.2577C81.6585 33.1895 81.9483 33.1273 82.1281 33.003C82.3077 32.8785 82.3976 32.6727 82.3976 32.3857C82.3976 32.1176 82.2999 31.9253 82.1043 31.8089C81.909 31.6927 81.5996 31.6345 81.1767 31.6345H80.3994V33.1895ZM80.3994 34.3667V36.1897H81.3629C81.7699 36.1897 82.0701 36.1116 82.2643 35.9554C82.4582 35.7992 82.5553 35.56 82.5553 35.2377C82.5553 34.6569 82.1422 34.367 81.3155 34.367L80.3994 34.3667Z" fill="white"/>
<path d="M87.4989 37.5104C86.6406 37.5104 85.9695 37.2729 85.4863 36.7974C85.0026 36.3221 84.7615 35.649 84.7615 34.778C84.7615 33.8816 84.9847 33.1884 85.4314 32.6987C85.8782 32.2093 86.4958 31.9643 87.284 31.9643C88.0375 31.9643 88.6244 32.1796 89.0441 32.6102C89.4638 33.0408 89.6735 33.636 89.6735 34.3949V35.1031H86.2347C86.2507 35.5176 86.3731 35.8419 86.6021 36.0745C86.831 36.3071 87.1519 36.4238 87.5656 36.4238C87.8864 36.4238 88.1901 36.3904 88.4762 36.3232C88.7623 36.2561 89.0614 36.1491 89.3727 36.0027V37.132C89.1185 37.2594 88.8465 37.3545 88.5575 37.4165C88.2679 37.4796 87.9152 37.5104 87.4989 37.5104ZM87.2935 33.0028C86.9853 33.0028 86.7437 33.1008 86.5687 33.2971C86.3941 33.4931 86.2938 33.7715 86.2685 34.1318H88.3096C88.303 33.7712 88.209 33.4928 88.0281 33.2971C87.8468 33.1008 87.602 33.0028 87.2935 33.0028Z" fill="white"/>
<path d="M89.81 32.0649H91.4029L92.4089 35.0746C92.4948 35.336 92.5537 35.6456 92.5855 36.003H92.6143C92.649 35.6744 92.7174 35.3648 92.8191 35.0746L93.8067 32.0649H95.366L93.1104 38.099C92.9033 38.6573 92.6088 39.0752 92.2256 39.3528C91.8424 39.6304 91.3948 39.769 90.8829 39.769C90.6318 39.769 90.3854 39.7419 90.1441 39.6877V38.5296C90.3184 38.5711 90.5092 38.5919 90.7163 38.5919C90.9737 38.5919 91.1986 38.5132 91.3911 38.3549C91.5833 38.1973 91.7335 37.9586 91.8418 37.6398L91.9277 37.3767L89.81 32.0649Z" fill="white"/>
<path d="M100.691 34.7302C100.691 35.6009 100.462 36.2823 100.004 36.7734C99.5461 37.2646 98.9086 37.5104 98.0916 37.5104C97.5797 37.5104 97.1281 37.3978 96.7372 37.1732C96.3462 36.9481 96.0457 36.6253 95.8357 36.2042C95.6257 35.7831 95.5209 35.2919 95.5209 34.7305C95.5209 33.8565 95.7481 33.1769 96.2029 32.6921C96.6573 32.207 97.2965 31.9649 98.1201 31.9649C98.6317 31.9649 99.0836 32.0767 99.4745 32.2998C99.8655 32.5229 100.166 32.8437 100.376 33.2616C100.586 33.6796 100.691 34.1687 100.691 34.7302ZM97.0043 34.7302C97.0043 35.2596 97.0908 35.6603 97.264 35.9312C97.4372 36.2022 97.7196 36.3379 98.1106 36.3379C98.4984 36.3379 98.7774 36.203 98.9477 35.9335C99.1178 35.664 99.2028 35.2631 99.2028 34.7302C99.2028 34.2007 99.1169 33.8035 98.9454 33.5386C98.7739 33.2737 98.4924 33.1414 98.1014 33.1414C97.7133 33.1414 97.4338 33.2729 97.262 33.5363C97.0902 33.7995 97.0043 34.1975 97.0043 34.7302Z" fill="white"/>
<path d="M106.531 37.4147H105.077V34.29C105.077 33.9041 105.008 33.6144 104.872 33.4216C104.735 33.2285 104.517 33.1319 104.218 33.1319C103.811 33.1319 103.518 33.2685 103.336 33.5409C103.155 33.8139 103.064 34.2661 103.064 34.8976V37.4145H101.61V32.0646H102.721L102.917 32.7488H102.997C103.159 32.4906 103.383 32.2952 103.667 32.1626C103.952 32.0303 104.275 31.9643 104.638 31.9643C105.258 31.9643 105.729 32.1326 106.05 32.469C106.371 32.8056 106.532 33.2916 106.532 33.9263L106.531 37.4147Z" fill="white"/>
<path d="M109.434 37.5104C108.807 37.5104 108.315 37.2663 107.958 36.7783C107.6 36.2904 107.421 35.6139 107.421 34.7495C107.421 33.8721 107.603 33.1887 107.967 32.699C108.331 32.2096 108.833 31.9646 109.472 31.9646C110.142 31.9646 110.654 32.226 111.007 32.7494H111.055C110.982 32.3505 110.945 31.9951 110.945 31.6824V29.9694H112.404V37.415H111.288L111.007 36.7213H110.945C110.615 37.2473 110.111 37.5104 109.434 37.5104ZM109.944 36.3477C110.316 36.3477 110.588 36.2393 110.762 36.0223C110.935 35.8053 111.03 35.4369 111.046 34.9169V34.759C111.046 34.1848 110.957 33.7732 110.781 33.5245C110.604 33.2757 110.317 33.1512 109.92 33.1512C109.596 33.1512 109.344 33.2893 109.164 33.5654C108.984 33.8412 108.895 34.2425 108.895 34.7688C108.895 35.2951 108.985 35.69 109.167 35.9528C109.348 36.2163 109.607 36.3477 109.944 36.3477Z" fill="white"/>
<path d="M115.532 37.4148V30.4191H117.011V37.4148H115.532Z" fill="white"/>
<path d="M123.142 37.4148H121.688V34.2901C121.688 33.9042 121.623 33.6145 121.495 33.4217C121.366 33.2286 121.163 33.132 120.887 33.132C120.515 33.132 120.244 33.2692 120.076 33.5436C119.907 33.818 119.823 34.2694 119.823 34.8977V37.4145H118.369V32.0647H119.48L119.675 32.7489H119.756C119.9 32.5031 120.106 32.3111 120.376 32.1722C120.646 32.0338 120.957 31.9641 121.306 31.9641C122.104 31.9641 122.645 32.2255 122.928 32.7489H123.057C123.2 32.5002 123.41 32.3071 123.689 32.1699C123.967 32.0327 124.281 31.9641 124.63 31.9641C125.234 31.9641 125.691 32.1197 126.001 32.4304C126.311 32.7417 126.466 33.2401 126.466 33.9258V37.4143H125.007V34.2895C125.007 33.9036 124.942 33.6139 124.814 33.4211C124.685 33.228 124.482 33.1314 124.206 33.1314C123.849 33.1314 123.583 33.2588 123.407 33.5142C123.231 33.7696 123.142 34.1745 123.142 34.7297V37.4148Z" fill="white"/>
<path d="M131.062 37.4148L130.78 36.6876H130.742C130.497 36.9969 130.245 37.2116 129.986 37.3309C129.727 37.4508 129.389 37.5105 128.973 37.5105C128.461 37.5105 128.058 37.3638 127.764 37.0704C127.47 36.7767 127.323 36.359 127.323 35.8166C127.323 35.2487 127.52 34.8299 127.917 34.5607C128.312 34.291 128.909 34.1419 129.707 34.1131L130.632 34.0843V33.85C130.632 33.3075 130.356 33.0366 129.803 33.0366C129.376 33.0366 128.876 33.1657 128.3 33.4242L127.819 32.4385C128.432 32.1163 129.113 31.9551 129.86 31.9551C130.575 31.9551 131.123 32.1114 131.505 32.4241C131.887 32.7368 132.077 33.2118 132.077 33.85V37.4148H131.062ZM130.632 34.936L130.07 34.955C129.647 34.9677 129.332 35.0444 129.125 35.1848C128.919 35.3251 128.815 35.539 128.815 35.8261C128.815 36.2377 129.05 36.4435 129.521 36.4435C129.858 36.4435 130.128 36.3461 130.33 36.1515C130.531 35.9569 130.632 35.6987 130.632 35.3764V34.936Z" fill="white"/>
<path d="M137.932 32.0649V32.8065L137.097 33.0218C137.25 33.2611 137.326 33.5291 137.326 33.8257C137.326 34.3999 137.127 34.8475 136.728 35.1677C136.329 35.4885 135.775 35.6488 135.066 35.6488L134.804 35.6344L134.589 35.6104C134.44 35.7252 134.365 35.8528 134.365 35.9932C134.365 36.2036 134.632 36.3091 135.166 36.3091H136.072C136.657 36.3091 137.103 36.4354 137.41 36.6873C137.717 36.9392 137.87 37.3093 137.87 37.7976C137.87 38.4227 137.61 38.9078 137.09 39.2523C136.571 39.5967 135.824 39.7691 134.852 39.7691C134.107 39.7691 133.539 39.6391 133.146 39.3788C132.754 39.1191 132.557 38.7545 132.557 38.2855C132.557 37.9633 132.658 37.6938 132.858 37.4767C133.058 37.2597 133.352 37.1052 133.74 37.0127C133.59 36.9487 133.46 36.8444 133.349 36.6991C133.238 36.5541 133.182 36.4002 133.182 36.2374C133.182 36.0333 133.241 35.8632 133.358 35.7278C133.476 35.592 133.646 35.4588 133.869 35.328C133.589 35.2066 133.367 35.0121 133.203 34.7443C133.04 34.4765 132.958 34.1606 132.958 33.7969C132.958 33.2132 133.147 32.7616 133.526 32.4428C133.904 32.124 134.444 31.9643 135.147 31.9643C135.297 31.9643 135.474 31.9779 135.679 32.0052C135.884 32.0323 136.016 32.0522 136.073 32.0649H137.932ZM133.816 38.1708C133.816 38.3717 133.912 38.5297 134.105 38.6447C134.297 38.7594 134.567 38.817 134.913 38.817C135.434 38.817 135.843 38.7453 136.139 38.6017C136.435 38.4582 136.582 38.2619 136.582 38.0131C136.582 37.8123 136.495 37.6733 136.32 37.5969C136.145 37.5203 135.875 37.4822 135.51 37.4822H134.756C134.489 37.4822 134.266 37.5453 134.086 37.6713C133.906 37.7967 133.816 37.9633 133.816 38.1708ZM134.346 33.8165C134.346 34.1067 134.412 34.3365 134.544 34.5057C134.675 34.6748 134.877 34.7593 135.147 34.7593C135.42 34.7593 135.621 34.6748 135.748 34.5057C135.875 34.3365 135.939 34.1067 135.939 33.8165C135.939 33.1723 135.675 32.8498 135.147 32.8498C134.613 32.8498 134.346 33.172 134.346 33.8165Z" fill="white"/>
<path d="M138.465 30.6823C138.465 30.207 138.729 29.9692 139.256 29.9692C139.784 29.9692 140.048 30.2067 140.048 30.6823C140.048 30.9088 139.982 31.0849 139.85 31.2112C139.718 31.3371 139.52 31.4 139.257 31.4C138.729 31.4 138.465 31.1607 138.465 30.6823ZM139.981 37.4148H138.526V32.0649H139.981L139.981 37.4148Z" fill="white"/>
<path d="M146.145 37.4148H144.691V34.2901C144.691 33.9041 144.623 33.6144 144.486 33.4216C144.349 33.2285 144.131 33.1319 143.833 33.1319C143.426 33.1319 143.132 33.2686 142.95 33.5409C142.769 33.8139 142.679 34.2661 142.679 34.8976V37.4145H141.224V32.0646H142.335L142.531 32.7489H142.612C142.774 32.4906 142.998 32.2952 143.282 32.1626C143.566 32.0303 143.89 31.9643 144.253 31.9643C144.873 31.9643 145.343 32.1326 145.664 32.469C145.985 32.8057 146.146 33.2916 146.146 33.9263L146.145 37.4148Z" fill="white"/>
<path d="M152 32.0649V32.8065L151.166 33.0218C151.318 33.2611 151.395 33.5291 151.395 33.8257C151.395 34.3999 151.195 34.8475 150.796 35.1677C150.397 35.4885 149.843 35.6488 149.134 35.6488L148.872 35.6344L148.657 35.6104C148.508 35.7252 148.433 35.8528 148.433 35.9932C148.433 36.2036 148.7 36.3091 149.234 36.3091H150.14C150.725 36.3091 151.171 36.4354 151.478 36.6873C151.785 36.9392 151.939 37.3093 151.939 37.7976C151.939 38.4227 151.679 38.9078 151.159 39.2523C150.639 39.5967 149.892 39.7691 148.919 39.7691C148.175 39.7691 147.607 39.6391 147.214 39.3788C146.822 39.1191 146.625 38.7545 146.625 38.2855C146.625 37.9633 146.725 37.6938 146.926 37.4767C147.126 37.2597 147.42 37.1052 147.808 37.0127C147.658 36.9487 147.528 36.8444 147.417 36.6991C147.305 36.5541 147.25 36.4002 147.25 36.2374C147.25 36.0333 147.309 35.8632 147.427 35.7278C147.544 35.592 147.714 35.4588 147.937 35.328C147.657 35.2066 147.435 35.0121 147.272 34.7443C147.108 34.4763 147.026 34.1606 147.026 33.7969C147.026 33.2132 147.215 32.7616 147.594 32.4428C147.972 32.124 148.513 31.9643 149.215 31.9643C149.365 31.9643 149.542 31.9779 149.747 32.0052C149.952 32.0323 150.083 32.0522 150.141 32.0649H152ZM147.885 38.1708C147.885 38.3717 147.981 38.5297 148.173 38.6447C148.365 38.7597 148.635 38.817 148.981 38.817C149.502 38.817 149.911 38.7453 150.207 38.6017C150.503 38.4582 150.651 38.2619 150.651 38.0131C150.651 37.8123 150.563 37.6733 150.388 37.5969C150.213 37.5203 149.943 37.4822 149.577 37.4822H148.824C148.557 37.4822 148.334 37.5453 148.154 37.6713C147.974 37.7967 147.885 37.9633 147.885 38.1708ZM148.413 33.8165C148.413 34.1067 148.48 34.3365 148.611 34.5057C148.743 34.6748 148.944 34.7593 149.215 34.7593C149.488 34.7593 149.688 34.6748 149.816 34.5057C149.943 34.3365 150.006 34.1067 150.006 33.8165C150.006 33.1723 149.743 32.8498 149.215 32.8498C148.681 32.8498 148.413 33.172 148.413 33.8165Z" fill="white"/>
</svg>
