<svg xmlns="http://www.w3.org/2000/svg">
    <symbol id="logo" width="204" height="53" viewBox="0 0 204 53" fill="none">
        <path d="M61.1495 34.2686H52.2235V20.8241H41.9039V34.2686H32.979V1.28906H41.9046V13.5155H52.2242V1.28906H61.1502L61.1495 34.2686Z"
              fill="#116BB4"/>
        <path d="M67.4252 34.2686V1.28906H76.3508V34.2686H67.4252Z" fill="#116BB4"/>
        <path d="M104.119 24.2527C104.119 26.2981 103.602 28.1137 102.568 29.7003C101.534 31.2872 100.042 32.5199 98.0939 33.3996C96.1459 34.2793 93.8602 34.7193 91.2368 34.7193C89.049 34.7193 87.213 34.565 85.7292 34.257C84.2451 33.949 82.7014 33.4112 81.098 32.6443V24.7039C82.7916 25.5763 84.5524 26.2569 86.3819 26.7455C88.2106 27.2344 89.8893 27.4781 91.4179 27.4781C92.7371 27.4781 93.7036 27.2491 94.3183 26.7902C94.9334 26.332 95.24 25.7411 95.24 25.0192C95.24 24.568 95.1164 24.1734 94.8689 23.835C94.6211 23.4966 94.2239 23.1547 93.6776 22.8086C93.1304 22.4629 91.6727 21.7564 89.3049 20.6881C87.1616 19.7106 85.5542 18.7632 84.4822 17.8458C83.4105 16.9287 82.6163 15.8758 82.0994 14.6877C81.5822 13.5 81.324 12.0937 81.324 10.4694C81.324 7.43185 82.4256 5.06341 84.6288 3.3637C86.8323 1.66436 89.8597 0.814697 93.7117 0.814697C97.114 0.814697 100.584 1.60431 104.121 3.18314L101.401 10.0632C98.328 8.64995 95.6751 7.94273 93.442 7.94273C92.2878 7.94273 91.449 8.14562 90.9237 8.55178C90.3988 8.95794 90.1368 9.46189 90.1368 10.0632C90.1368 10.71 90.4702 11.2894 91.1367 11.8003C91.8036 12.3116 93.6135 13.244 96.566 14.5976C99.3989 15.8758 101.366 17.2483 102.468 18.7143C103.569 20.1807 104.119 22.0275 104.119 24.2527Z"
              fill="#116BB4"/>
        <path d="M139.128 17.7337C139.128 23.2829 137.771 27.5012 135.058 30.3886C132.346 33.276 128.374 34.7197 123.143 34.7197C117.986 34.7197 114.034 33.2679 111.283 30.3655C108.533 27.4639 107.158 23.2371 107.158 17.6879C107.158 12.1987 108.525 8.007 111.261 5.1119C113.996 2.21757 117.971 0.77002 123.188 0.77002C128.418 0.77002 132.383 2.20602 135.081 5.07841C137.778 7.95118 139.128 12.1695 139.128 17.7337ZM116.51 17.7337C116.51 24.1102 118.721 27.2983 123.142 27.2983C125.39 27.2983 127.058 26.5237 128.145 24.9749C129.231 23.4265 129.774 21.0126 129.774 17.7337C129.774 14.4401 129.223 12.0078 128.122 10.4363C127.02 8.86514 125.375 8.079 123.187 8.079C118.735 8.07861 116.51 11.2971 116.51 17.7337Z"
              fill="#116BB4"/>
        <path d="M175.53 34.2686H163.883L151.878 11.0339H151.676C151.96 14.6881 152.102 17.4778 152.102 19.4027V34.2682H144.233V1.28906H155.834L167.795 24.2077H167.93C167.72 20.8841 167.616 18.2154 167.616 16.1996V1.28906H175.53V34.2686Z"
              fill="#116BB4"/>
        <path d="M15.6741 35.2307C13.6747 35.2307 11.7761 34.8853 10.0311 34.2035C8.26222 33.5125 6.71361 32.4611 5.42822 31.077C4.15433 29.7053 3.14137 27.9991 2.41809 26.006C1.70019 24.0295 1.33606 21.7045 1.33606 19.0962C1.33606 16.5576 1.66642 14.2304 2.31871 12.1792C2.97906 10.0979 3.9433 8.30814 5.18533 6.85943C6.43696 5.39956 7.9825 4.26192 9.77937 3.47809C11.5643 2.70003 13.5772 2.30542 15.7624 2.30542C17.6682 2.30542 19.4286 2.59724 20.9949 3.1728C22.5688 3.7522 23.9479 4.56452 25.094 5.58743C26.2424 6.61419 27.1679 7.83922 27.8455 9.22864C28.5154 10.6054 28.7341 11.6444 28.7437 11.6883L28.982 12.846L20.7574 12.8433L20.5015 12.28C20.4995 12.2766 20.0802 11.3965 19.1328 10.6477C18.136 9.86002 17.047 9.47696 15.8046 9.47696C13.6022 9.47696 12.0397 10.2288 11.0291 11.7753C9.94781 13.4288 9.3995 15.7742 9.3995 18.7463C9.3995 21.7757 9.93975 24.1353 11.0064 25.7596C12.0025 27.2776 13.4725 28.0152 15.5003 28.0152C17.0731 28.0152 18.2822 27.6164 19.1969 26.796C19.9973 26.0787 20.9504 24.5723 21.2505 24.0526L21.5202 23.5852L28.9306 23.4089L28.6812 24.5985C28.662 24.6878 28.2131 26.8025 27.4633 28.2431C26.7182 29.6788 25.7608 30.9304 24.6205 31.966C23.4736 33.0054 22.1314 33.8189 20.6312 34.3833C19.1351 34.9454 17.4676 35.2307 15.6741 35.2307Z"
              fill="#116BB4"/>
        <path d="M15.7612 3.26746C17.5619 3.26746 19.1961 3.53695 20.6634 4.07632C22.1299 4.61607 23.3938 5.35948 24.4547 6.30616C25.5153 7.25362 26.3571 8.36854 26.9821 9.65093C27.6068 10.9341 27.8025 11.8823 27.8025 11.8823L21.3744 11.8808C21.3744 11.8808 20.8875 10.8094 19.7264 9.89116C18.5645 8.97297 17.2561 8.51406 15.8038 8.51406C13.2764 8.51406 11.4166 9.42533 10.226 11.2471C9.0346 13.0692 8.43948 15.5693 8.43948 18.7459C8.43948 21.9813 9.02731 24.496 10.2045 26.2885C11.3809 28.0814 13.1463 28.9773 15.4996 28.9773C17.3003 28.9773 18.746 28.4895 19.8354 27.5128C20.9254 26.5365 22.08 24.5338 22.08 24.5338L27.7415 24.399C27.7415 24.399 27.3094 26.4564 26.6123 27.7973C25.9158 29.1382 25.0364 30.2897 23.9762 31.251C22.9149 32.2135 21.6882 32.9569 20.2935 33.4812C18.8987 34.006 17.3593 34.2681 15.6741 34.2681C13.7852 34.2681 12.0206 33.9475 10.3791 33.3064C8.73762 32.6658 7.321 31.7037 6.13038 30.421C4.93938 29.1386 4.00161 27.5571 3.31978 25.6768C2.63641 23.7961 2.2953 21.6028 2.2953 19.0958C2.2953 16.6473 2.60725 14.4386 3.2323 12.471C3.85658 10.5033 4.7506 8.84207 5.91205 7.48653C7.0739 6.131 8.49052 5.08922 10.1608 4.36006C11.8314 3.63243 13.6981 3.26746 15.7612 3.26746ZM15.7612 1.34253C13.4441 1.34253 11.303 1.76409 9.39681 2.59489C7.46565 3.43763 5.80423 4.66112 4.45783 6.23148C3.13138 7.77913 2.10384 9.68173 1.40435 11.8873C0.722135 14.0325 0.376038 16.4583 0.376038 19.0962C0.376038 21.8173 0.759737 24.2535 1.51678 26.3363C2.28379 28.4506 3.36352 30.267 4.72642 31.7338C6.10966 33.2237 7.7776 34.3567 9.68305 35.1005C11.5394 35.8258 13.555 36.1935 15.6738 36.1935C17.5834 36.1935 19.3638 35.8874 20.9665 35.2845C22.5803 34.6774 24.0257 33.8008 25.2616 32.6801C26.4879 31.5671 27.5143 30.2242 28.3128 28.6874C29.109 27.1571 29.5679 25.0335 29.6178 24.7967L30.1177 22.4179L27.6954 22.4752L22.034 22.61L20.9577 22.6354L20.4186 23.5705C20.0295 24.2435 19.1792 25.5201 18.5565 26.0776C17.8252 26.734 16.8245 27.0527 15.4984 27.0527C13.7955 27.0527 12.6218 26.4737 11.8057 25.2302C10.8445 23.7657 10.3576 21.584 10.3576 18.7462C10.3576 15.9651 10.853 13.7972 11.8299 12.3035C12.3528 11.5031 13.334 10.4394 15.8034 10.4394C16.8226 10.4394 17.717 10.7547 18.5385 11.4038C19.2391 11.9574 19.5856 12.5992 19.6324 12.69L20.1235 13.8511L21.3732 13.8057L27.8013 13.8072L30.158 13.8076L29.6807 11.4919C29.6561 11.3707 29.416 10.2642 28.7057 8.8055C27.9729 7.30213 26.9722 5.97777 25.7309 4.86785C24.4931 3.76333 23.0109 2.88902 21.3245 2.26804C19.6516 1.65437 17.7799 1.34253 15.7612 1.34253Z"
              fill="#116BB4"/>
        <path d="M73.9098 40.28H75.9035L72.7376 49.6241H70.5846L67.4252 40.28H69.4189L71.1705 45.8404C71.268 46.1688 71.3689 46.5511 71.4733 46.9877C71.5772 47.4242 71.6421 47.728 71.6674 47.8982C71.7142 47.5059 71.8735 46.8202 72.1451 45.84L73.9098 40.28Z"
              fill="#44A3DB"/>
        <path d="M81.0673 49.6245L80.6916 48.6531H80.6406C80.3133 49.0662 79.9772 49.353 79.6311 49.5124C79.285 49.6726 78.8338 49.7523 78.2774 49.7523C77.5936 49.7523 77.0553 49.5563 76.6628 49.1644C76.2699 48.7721 76.0734 48.2142 76.0734 47.4897C76.0734 46.7313 76.3378 46.1719 76.8665 45.8123C77.3953 45.452 78.1926 45.2529 79.2585 45.2144L80.4944 45.1759V44.8629C80.4944 44.1384 80.1249 43.7765 79.3859 43.7765C78.8169 43.7765 78.1477 43.949 77.3795 44.2943L76.7361 42.9777C77.5557 42.5472 78.4643 42.332 79.4623 42.332C80.4177 42.332 81.1502 42.5407 81.6601 42.9584C82.17 43.3761 82.4244 44.0106 82.4244 44.8629V49.6245H81.0673ZM80.4936 46.3136L79.742 46.339C79.1772 46.3559 78.7566 46.4583 78.4808 46.6458C78.2045 46.8333 78.0667 47.119 78.0667 47.5024C78.0667 48.0522 78.381 48.327 79.0095 48.327C79.4596 48.327 79.8195 48.1969 80.0892 47.9371C80.359 47.6772 80.4936 47.3322 80.4936 46.9018V46.3136Z"
              fill="#44A3DB"/>
        <path d="M85.9886 49.6244H84.0459V39.6794H85.9886V49.6244Z" fill="#44A3DB"/>
        <path d="M92.6937 49.6245L92.4324 48.7105H92.3304C92.1224 49.0428 91.827 49.2996 91.4448 49.4809C91.0626 49.6618 90.6271 49.7523 90.1391 49.7523C89.3022 49.7523 88.6718 49.5275 88.2471 49.0778C87.8223 48.6285 87.6101 47.9818 87.6101 47.1383V42.4788H89.5528V46.6524C89.5528 47.1679 89.6441 47.5548 89.8267 47.8124C90.0094 48.0703 90.3002 48.1993 90.6993 48.1993C91.243 48.1993 91.6355 48.0168 91.8776 47.653C92.1197 47.2884 92.2406 46.6844 92.2406 45.8409V42.4791H94.1833V49.6249H92.6937V49.6245Z"
              fill="#44A3DB"/>
        <path d="M99.0678 49.7522C97.9213 49.7522 97.025 49.4349 96.3796 48.7997C95.7338 48.1649 95.4115 47.2659 95.4115 46.1025C95.4115 44.9052 95.7096 43.9793 96.3067 43.3252C96.9033 42.6715 97.7283 42.3442 98.7815 42.3442C99.788 42.3442 100.571 42.6318 101.132 43.207C101.693 43.7822 101.973 44.5772 101.973 45.5908V46.5367H97.3799C97.401 47.0904 97.5644 47.5235 97.8702 47.8342C98.1761 48.1448 98.605 48.3008 99.1572 48.3008C99.5862 48.3008 99.9917 48.2561 100.374 48.1664C100.756 48.0767 101.155 47.9339 101.571 47.7383V49.2467C101.231 49.4168 100.868 49.5439 100.482 49.6266C100.095 49.711 99.6238 49.7522 99.0678 49.7522ZM98.7938 43.7313C98.3817 43.7313 98.059 43.8622 97.8257 44.1244C97.5921 44.3862 97.4582 44.7581 97.4244 45.2393H100.151C100.142 44.7577 100.017 44.3858 99.7749 44.1244C99.5328 43.8622 99.2055 43.7313 98.7938 43.7313Z"
              fill="#44A3DB"/>
        <path d="M105.789 40.28H108.688C110.008 40.28 110.967 40.4687 111.564 40.8456C112.161 41.2229 112.459 41.8227 112.459 42.645C112.459 43.2032 112.328 43.6614 112.067 44.019C111.806 44.3771 111.459 44.5919 111.026 44.6646V44.7286C111.616 44.8606 112.041 45.1078 112.303 45.47C112.564 45.8319 112.695 46.3136 112.695 46.9145C112.695 47.7669 112.388 48.4314 111.774 48.9088C111.161 49.3861 110.327 49.6244 109.274 49.6244H105.79V40.28H105.789ZM107.764 43.9809H108.911C109.446 43.9809 109.833 43.8978 110.073 43.7318C110.313 43.5655 110.433 43.2906 110.433 42.9072C110.433 42.5491 110.303 42.2924 110.042 42.1368C109.781 41.9817 109.367 41.9039 108.803 41.9039H107.764V43.9809ZM107.764 45.5532V47.9882H109.051C109.595 47.9882 109.996 47.8839 110.255 47.6753C110.514 47.4666 110.644 47.147 110.644 46.7166C110.644 45.9409 110.092 45.5536 108.988 45.5536H107.764V45.5532Z"
              fill="#A3A3A3"/>
        <path d="M117.247 49.7524C116.101 49.7524 115.204 49.4352 114.559 48.7999C113.913 48.1651 113.591 47.2662 113.591 46.1027C113.591 44.9054 113.889 43.9795 114.486 43.3254C115.082 42.6717 115.907 42.3445 116.96 42.3445C117.967 42.3445 118.75 42.6321 119.311 43.2072C119.872 43.7824 120.152 44.5774 120.152 45.5911V46.537H115.558C115.58 47.0906 115.743 47.5237 116.049 47.8344C116.355 48.1451 116.784 48.301 117.336 48.301C117.765 48.301 118.17 48.2563 118.552 48.1666C118.935 48.0769 119.334 47.9341 119.75 47.7385V49.2469C119.41 49.4171 119.047 49.5441 118.661 49.6269C118.274 49.7112 117.803 49.7524 117.247 49.7524ZM116.973 43.7316C116.561 43.7316 116.238 43.8625 116.005 44.1247C115.771 44.3865 115.637 44.7584 115.604 45.2396H118.33C118.321 44.758 118.196 44.3861 117.954 44.1247C117.712 43.8625 117.385 43.7316 116.973 43.7316Z"
              fill="#A3A3A3"/>
        <path d="M120.334 42.4788H122.462L123.805 46.4988C123.92 46.848 123.999 47.2615 124.041 47.7388H124.08C124.126 47.3 124.217 46.8865 124.353 46.4988L125.672 42.4788H127.755L124.742 50.5385C124.466 51.2842 124.072 51.8424 123.56 52.2132C123.049 52.5839 122.451 52.7691 121.767 52.7691C121.432 52.7691 121.102 52.7329 120.78 52.6605V51.1136C121.013 51.1691 121.268 51.1968 121.544 51.1968C121.888 51.1968 122.189 51.0917 122.446 50.8803C122.703 50.6697 122.903 50.351 123.048 49.9252L123.163 49.5737L120.334 42.4788Z"
              fill="#A3A3A3"/>
        <path d="M134.867 46.0388C134.867 47.2018 134.562 48.1119 133.95 48.7679C133.338 49.424 132.487 49.7524 131.396 49.7524C130.712 49.7524 130.109 49.6018 129.586 49.3019C129.064 49.0012 128.663 48.5701 128.382 48.0076C128.102 47.4451 127.962 46.7891 127.962 46.0392C127.962 44.8719 128.265 43.9641 128.873 43.3165C129.48 42.6686 130.334 42.3452 131.434 42.3452C132.117 42.3452 132.721 42.4946 133.243 42.7926C133.765 43.0905 134.166 43.519 134.447 44.0773C134.727 44.6355 134.867 45.2888 134.867 46.0388ZM129.943 46.0388C129.943 46.746 130.059 47.2811 130.29 47.643C130.522 48.0049 130.899 48.1862 131.421 48.1862C131.939 48.1862 132.312 48.0061 132.539 47.6461C132.766 47.2861 132.88 46.7506 132.88 46.0388C132.88 45.3316 132.765 44.801 132.536 44.4472C132.307 44.0934 131.931 43.9167 131.409 43.9167C130.89 43.9167 130.517 44.0923 130.288 44.4442C130.058 44.7957 129.943 45.3273 129.943 46.0388Z"
              fill="#A3A3A3"/>
        <path d="M142.668 49.6246H140.725V45.4509C140.725 44.9354 140.634 44.5485 140.452 44.291C140.269 44.033 139.978 43.9041 139.579 43.9041C139.035 43.9041 138.643 44.0865 138.401 44.4504C138.159 44.8149 138.037 45.419 138.037 46.2625V49.6242H136.095V42.4785H137.579L137.84 43.3924H137.948C138.164 43.0475 138.463 42.7864 138.843 42.6094C139.223 42.4326 139.655 42.3445 140.139 42.3445C140.967 42.3445 141.596 42.5693 142.025 43.0186C142.454 43.4683 142.669 44.1173 142.669 44.9651V49.6246H142.668Z"
              fill="#A3A3A3"/>
        <path d="M146.545 49.7523C145.708 49.7523 145.051 49.4263 144.573 48.7745C144.096 48.1227 143.857 47.2191 143.857 46.0646C143.857 44.8927 144.1 43.9799 144.586 43.3258C145.073 42.6721 145.743 42.3448 146.596 42.3448C147.491 42.3448 148.176 42.694 148.647 43.3931H148.711C148.613 42.8603 148.564 42.3856 148.564 41.9679V39.6799H150.513V49.6249H149.022L148.647 48.6982H148.563C148.123 49.4009 147.45 49.7523 146.545 49.7523ZM147.226 48.1993C147.723 48.1993 148.087 48.0546 148.319 47.7647C148.551 47.4748 148.677 46.9827 148.698 46.2882V46.0773C148.698 45.3104 148.58 44.7606 148.344 44.4284C148.109 44.0961 147.725 43.9298 147.195 43.9298C146.762 43.9298 146.425 44.1142 146.185 44.483C145.945 44.8515 145.825 45.3874 145.825 46.0903C145.825 46.7933 145.946 47.3208 146.188 47.6719C146.431 48.0238 146.777 48.1993 147.226 48.1993Z"
              fill="#A3A3A3"/>
        <path d="M154.691 49.6245V40.2805H156.666V49.6245H154.691Z" fill="#44A3DB"/>
        <path d="M164.855 49.6245H162.913V45.4508C162.913 44.9353 162.826 44.5484 162.655 44.2909C162.483 44.0329 162.212 43.904 161.843 43.904C161.346 43.904 160.985 44.0872 160.76 44.4537C160.535 44.8202 160.422 45.4231 160.422 46.2624V49.6241H158.479V42.4784H159.964L160.225 43.3923H160.333C160.524 43.0639 160.8 42.8075 161.161 42.622C161.522 42.4372 161.936 42.344 162.403 42.344C163.469 42.344 164.191 42.6932 164.569 43.3923H164.741C164.932 43.0601 165.213 42.8021 165.585 42.6189C165.957 42.4356 166.376 42.344 166.843 42.344C167.65 42.344 168.26 42.5519 168.674 42.9669C169.088 43.3827 169.295 44.0483 169.295 44.9642V49.6237H167.346V45.4501C167.346 44.9346 167.26 44.5477 167.088 44.2901C166.916 44.0322 166.645 43.9032 166.276 43.9032C165.8 43.9032 165.445 44.0734 165.209 44.4145C164.974 44.7556 164.855 45.2965 164.855 46.0379V49.6245Z"
              fill="#44A3DB"/>
        <path d="M175.433 49.6245L175.058 48.6531H175.007C174.679 49.0662 174.343 49.353 173.997 49.5124C173.651 49.6726 173.2 49.7523 172.643 49.7523C171.96 49.7523 171.421 49.5563 171.029 49.1644C170.636 48.7721 170.439 48.2142 170.439 47.4897C170.439 46.7313 170.703 46.1719 171.232 45.8123C171.761 45.452 172.558 45.2529 173.624 45.2144L174.86 45.1759V44.8629C174.86 44.1384 174.49 43.7765 173.751 43.7765C173.182 43.7765 172.513 43.949 171.745 44.2943L171.102 42.9777C171.921 42.5472 172.83 42.332 173.828 42.332C174.783 42.332 175.516 42.5407 176.026 42.9584C176.536 43.3761 176.79 44.0106 176.79 44.8629V49.6245H175.433ZM174.86 46.3136L174.108 46.339C173.543 46.3559 173.123 46.4583 172.847 46.6458C172.571 46.8333 172.433 47.119 172.433 47.5024C172.433 48.0522 172.747 48.327 173.376 48.327C173.826 48.327 174.186 48.1969 174.456 47.9371C174.725 47.6772 174.86 47.3322 174.86 46.9018V46.3136Z"
              fill="#44A3DB"/>
        <path d="M184.61 42.4786V43.4692L183.495 43.7568C183.699 44.0763 183.801 44.4343 183.801 44.8305C183.801 45.5974 183.535 46.1953 183.002 46.623C182.468 47.0515 181.729 47.2655 180.782 47.2655L180.432 47.2463L180.145 47.2143C179.945 47.3676 179.846 47.5381 179.846 47.7256C179.846 48.0066 180.203 48.1475 180.916 48.1475H182.126C182.907 48.1475 183.503 48.3162 183.913 48.6526C184.322 48.9891 184.527 49.4834 184.527 50.1356C184.527 50.9706 184.18 51.6186 183.486 52.0786C182.791 52.5387 181.795 52.7689 180.495 52.7689C179.502 52.7689 178.743 52.5953 178.218 52.2476C177.693 51.9008 177.431 51.4138 177.431 50.7874C177.431 50.357 177.565 49.997 177.832 49.7071C178.1 49.4172 178.493 49.2109 179.01 49.0873C178.811 49.0018 178.637 48.8625 178.488 48.6684C178.34 48.4748 178.266 48.2692 178.266 48.0517C178.266 47.7791 178.344 47.552 178.501 47.371C178.658 47.1897 178.885 47.0118 179.183 46.837C178.809 46.675 178.513 46.4151 178.294 46.0574C178.075 45.6998 177.966 45.2778 177.966 44.792C177.966 44.0124 178.218 43.4091 178.725 42.9833C179.23 42.5575 179.951 42.3442 180.891 42.3442C181.09 42.3442 181.327 42.3623 181.601 42.3989C181.875 42.4351 182.05 42.4617 182.126 42.4786H184.61ZM179.112 50.6342C179.112 50.9025 179.241 51.1135 179.498 51.2671C179.755 51.4203 180.115 51.4973 180.577 51.4973C181.274 51.4973 181.82 51.4014 182.215 51.2097C182.61 51.018 182.807 50.7558 182.807 50.4236C182.807 50.1552 182.69 49.9697 182.457 49.8677C182.224 49.7653 181.862 49.7144 181.374 49.7144H180.368C180.011 49.7144 179.713 49.7987 179.473 49.967C179.232 50.1345 179.112 50.357 179.112 50.6342ZM179.82 44.8182C179.82 45.2058 179.908 45.5127 180.084 45.7387C180.26 45.9647 180.529 46.0775 180.89 46.0775C181.255 46.0775 181.522 45.9647 181.693 45.7387C181.862 45.5127 181.948 45.2058 181.948 44.8182C181.948 43.9577 181.595 43.5269 180.89 43.5269C180.176 43.5269 179.82 43.9573 179.82 44.8182Z"
              fill="#44A3DB"/>
        <path d="M185.321 40.6319C185.321 39.9971 185.674 39.6794 186.379 39.6794C187.083 39.6794 187.436 39.9967 187.436 40.6319C187.436 40.9345 187.348 41.1697 187.172 41.3384C186.996 41.5066 186.732 41.5905 186.379 41.5905C185.674 41.5905 185.321 41.271 185.321 40.6319ZM187.347 49.6244H185.404V42.4787H187.346V49.6244H187.347Z"
              fill="#44A3DB"/>
        <path d="M195.58 49.6243H193.638V45.4507C193.638 44.9352 193.547 44.5483 193.364 44.2907C193.181 44.0328 192.89 43.9038 192.491 43.9038C191.948 43.9038 191.555 44.0863 191.313 44.4501C191.071 44.8147 190.95 45.4187 190.95 46.2622V49.6239H189.007V42.4782H190.491L190.753 43.3922H190.861C191.077 43.0472 191.376 42.7862 191.756 42.6091C192.136 42.4324 192.568 42.3442 193.052 42.3442C193.88 42.3442 194.509 42.5691 194.938 43.0183C195.366 43.468 195.581 44.1171 195.581 44.9648V49.6243H195.58Z"
              fill="#44A3DB"/>
        <path d="M203.4 42.4786V43.4692L202.286 43.7568C202.49 44.0763 202.592 44.4343 202.592 44.8305C202.592 45.5974 202.325 46.1953 201.792 46.623C201.259 47.0515 200.519 47.2655 199.573 47.2655L199.222 47.2463L198.936 47.2143C198.736 47.3676 198.636 47.5381 198.636 47.7256C198.636 48.0066 198.993 48.1475 199.706 48.1475H200.916C201.698 48.1475 202.293 48.3162 202.703 48.6526C203.113 48.9891 203.318 49.4834 203.318 50.1356C203.318 50.9706 202.971 51.6186 202.276 52.0786C201.582 52.5387 200.585 52.7689 199.286 52.7689C198.292 52.7689 197.533 52.5953 197.008 52.2476C196.484 51.9008 196.222 51.4138 196.222 50.7874C196.222 50.357 196.355 49.997 196.623 49.7071C196.89 49.4172 197.283 49.2109 197.801 49.0873C197.601 49.0018 197.427 48.8625 197.279 48.6684C197.13 48.4748 197.056 48.2692 197.056 48.0517C197.056 47.7791 197.134 47.552 197.292 47.371C197.448 47.1897 197.676 47.0118 197.973 46.837C197.599 46.675 197.303 46.4151 197.085 46.0574C196.866 45.6994 196.757 45.2778 196.757 44.792C196.757 44.0124 197.009 43.4091 197.515 42.9833C198.02 42.5575 198.742 42.3442 199.681 42.3442C199.881 42.3442 200.117 42.3623 200.391 42.3989C200.665 42.4351 200.84 42.4617 200.917 42.4786H203.4ZM197.903 50.6342C197.903 50.9025 198.032 51.1135 198.289 51.2671C198.546 51.4207 198.905 51.4973 199.368 51.4973C200.064 51.4973 200.61 51.4014 201.005 51.2097C201.4 51.018 201.598 50.7558 201.598 50.4236C201.598 50.1552 201.481 49.9697 201.247 49.8677C201.014 49.7653 200.653 49.7144 200.165 49.7144H199.158C198.801 49.7144 198.503 49.7987 198.263 49.967C198.023 50.1345 197.903 50.357 197.903 50.6342ZM198.61 44.8182C198.61 45.2058 198.698 45.5127 198.874 45.7387C199.05 45.9647 199.319 46.0775 199.68 46.0775C200.045 46.0775 200.313 45.9647 200.483 45.7387C200.653 45.5127 200.737 45.2058 200.737 44.8182C200.737 43.9577 200.385 43.5269 199.68 43.5269C198.967 43.5269 198.61 43.9573 198.61 44.8182Z"
              fill="#44A3DB"/>
    </symbol>
</svg>


<svg xmlns='http://www.w3.org/2000/svg'>
<symbol id='as-01' width='164' height='151' viewBox='0 0 164 151'>
    <path d='M157.011 0H145.393C141.539 0 138.403 3.13711 138.403 6.99264V16.7863C126.823 11.0382 108.296 8.23403 82.0003 8.23403C67.796 8.23403 55.6353 9.08031 45.8564 10.7498C44.5486 10.9731 43.6693 12.2145 43.8926 13.5232C44.1159 14.8316 45.3564 15.7118 46.6649 15.4878C56.1776 13.8642 68.066 13.0406 82.0003 13.0406C108.978 13.0406 127.939 16.1335 138.403 22.2373V41.1849C138.377 41.1705 138.35 41.1583 138.324 41.1442C135.484 39.5868 132.088 39.0254 128.941 38.4281C117.428 36.2427 105.583 35.9329 93.9025 36.4215C90.8893 36.5475 88.0193 36.6708 85.3671 38.2836C84.0961 39.0549 82.9686 40.072 82.0644 41.2522C82.0436 41.2794 82.0211 41.305 82.0006 41.3326C81.9798 41.3047 81.9571 41.2788 81.9359 41.2509C80.8091 39.7769 79.3468 38.5781 77.6812 37.7626C75.2792 36.5866 72.7218 36.5318 70.1045 36.4215C58.611 35.9287 49.3427 36.4328 42.0822 37.3354C38.9249 37.728 35.7691 38.2458 32.6582 38.9139C30.2946 39.4215 27.8436 39.9557 25.6773 41.1439C25.6514 41.158 25.6241 41.1701 25.5982 41.1846V22.2369C28.7456 20.4002 32.6723 18.823 37.2935 17.5418C38.5722 17.1874 39.3214 15.8631 38.9668 14.5839C38.6122 13.3047 37.2884 12.5561 36.01 12.9099C32.0929 13.9962 28.6082 15.2946 25.5982 16.7859V6.99264C25.5982 3.13679 22.4623 0 18.6083 0H6.99053C3.13587 0 0 3.13711 0 6.99264V125.477C0 125.588 0.00768753 125.7 0.0233829 125.811L2.70889 144.922C3.19577 148.387 6.20063 151 9.69814 151H15.8991C19.3966 151 22.4015 148.387 22.8883 144.922L25.2833 127.88H138.717L141.112 144.922C141.599 148.387 144.603 151 148.101 151H154.302C157.8 151 160.805 148.387 161.291 144.922L163.977 125.811C163.992 125.7 164 125.588 164 125.476V6.99264C164.001 3.13711 160.865 0 157.011 0ZM143.207 6.99264C143.207 5.78715 144.188 4.8066 145.393 4.8066H157.01C158.215 4.8066 159.196 5.78747 159.196 6.99264V78.0284C156.233 75.8379 152.812 74.3056 149.368 73.0437C148.434 72.7014 147.464 72.3704 146.456 72.0503V54.8975C146.456 51.462 145.299 48.0564 143.207 45.3323V6.99264ZM84.4027 48.5306C84.4027 44.7273 87.3707 41.5809 91.16 41.3675C94.4067 41.1849 97.6649 41.0564 100.917 41.0564C100.942 41.0564 100.966 41.0561 100.991 41.0561C109.321 40.9958 119.676 41.4521 129.186 43.3738C132.795 44.1031 136.449 44.8302 138.99 47.7635C140.685 49.7198 141.652 52.3073 141.652 54.8978V70.6798C130.089 67.7179 114.625 65.9526 95.4368 65.406C91.7596 65.3009 88.0815 65.2432 84.4027 65.2259V48.5306ZM82.0006 70.0267C101.723 70.0267 122.263 70.4773 141.442 75.6027C146.747 77.02 152.207 78.7103 156.607 82.1211H7.37683C7.6177 81.934 7.87972 81.7407 8.16544 81.5421C13.3603 77.9304 19.6605 76.2128 25.7513 74.807C44.1418 70.5628 63.2024 70.0267 82.0006 70.0267ZM22.3489 54.8978C22.3489 47.4716 28.5505 44.6395 34.8165 43.3735C44.3141 41.4544 54.6542 40.9971 62.9782 41.0561C63.023 41.0564 63.0682 41.0567 63.113 41.057C66.3543 41.082 69.6055 41.157 72.8406 41.3678C76.6296 41.5809 79.598 44.7273 79.598 48.5306V65.2259C79.4977 65.2262 72.1401 65.3018 68.5619 65.406C49.3748 65.9526 33.9116 67.7183 22.3489 70.6798C22.3489 70.6798 22.3489 54.9029 22.3489 54.8978ZM6.98989 4.8066H18.6077C19.8127 4.8066 20.7928 5.78747 20.7928 6.99264V45.3323C18.992 47.677 17.8508 50.5318 17.598 53.5994C17.5625 54.0307 17.5442 54.4649 17.5442 54.8975V72.0503C13.0858 73.466 8.59178 75.2291 4.80503 78.0287V6.99264H4.80471C4.80471 5.78715 5.78519 4.8066 6.98989 4.8066ZM159.196 99.6726H134.667C133.341 99.6726 132.265 100.749 132.265 102.076C132.265 103.403 133.341 104.479 134.667 104.479H159.196V125.309L156.533 144.253C156.378 145.36 155.419 146.194 154.302 146.194H148.101C146.985 146.194 146.025 145.36 145.87 144.253L143.184 125.142C143.017 123.956 142.003 123.074 140.805 123.074H23.1952C21.9975 123.074 20.9828 123.956 20.8162 125.142L18.1307 144.253C17.975 145.36 17.016 146.194 15.8991 146.194H9.69814C8.58153 146.194 7.62219 145.359 7.46651 144.253L4.80471 125.309V104.479H125.058C126.385 104.479 127.46 103.403 127.46 102.076C127.46 100.749 126.385 99.6726 125.058 99.6726H4.80471V86.9283H159.196V99.6726Z'></path>
</symbol>
</svg>